<svg xmlns="http://www.w3.org/2000/svg" viewBox="0 0 64 64" role="img" aria-label="AmneziaWG">
  <defs>
    <linearGradient id="g" x1="10" y1="8" x2="54" y2="56" gradientUnits="userSpaceOnUse">
      <stop stop-color="#24d18f"/>
      <stop offset="1" stop-color="#35a7ff"/>
    </linearGradient>
  </defs>
  <path fill="url(#g)" d="M32 5 54 14v16c0 14.8-8.9 25.2-22 29-13.1-3.8-22-14.2-22-29V14L32 5Z"/>
  <path fill="#07131f" fill-opacity=".88" d="M32 13 47 19.2v11.2c0 10.1-5.7 17.5-15 21-9.3-3.5-15-10.9-15-21V19.2L32 13Z"/>
  <path fill="#fff" d="M32 19c-5 0-9 4-9 9v3h-2.2v15h24.4V31H43v-3c0-5-4-9-9-9Zm-5 12v-3c0-2.8 2.2-5 5-5s5 2.2 5 5v3H27Zm6.9 8.2V43h-3.8v-3.8a3.3 3.3 0 1 1 3.8 0Z"/>
</svg>
